<svg width="28" height="27" viewBox="0 0 28 27" fill="none" xmlns="http://www.w3.org/2000/svg">
<path d="M13.9802 0C17.551 0 17.9965 0.0131421 19.3974 0.0788532C20.7971 0.144564 21.7499 0.364039 22.5884 0.689966C23.4557 1.02378 24.1865 1.47587 24.9172 2.20526C25.5854 2.86224 26.1025 3.65694 26.4325 4.53406C26.7571 5.37122 26.9779 6.32534 27.0436 7.72499C27.1053 9.12595 27.1224 9.57147 27.1224 13.1422C27.1224 16.7129 27.1093 17.1585 27.0436 18.5594C26.9779 19.9591 26.7571 20.9119 26.4325 21.7504C26.1035 22.628 25.5863 23.4229 24.9172 24.0792C24.26 24.7472 23.4654 25.2643 22.5884 25.5944C21.7512 25.9191 20.7971 26.1399 19.3974 26.2056C17.9965 26.2673 17.551 26.2844 13.9802 26.2844C10.4095 26.2844 9.96396 26.2713 8.563 26.2056C7.16336 26.1399 6.21055 25.9191 5.37207 25.5944C4.4946 25.2652 3.69976 24.748 3.04327 24.0792C2.37487 23.4223 1.85776 22.6276 1.52798 21.7504C1.20205 20.9132 0.982577 19.9591 0.916866 18.5594C0.855097 17.1585 0.838013 16.7129 0.838013 13.1422C0.838013 9.57147 0.851155 9.12595 0.916866 7.72499C0.982577 6.32403 1.20205 5.37253 1.52798 4.53406C1.85684 3.6564 2.37408 2.86148 3.04327 2.20526C3.69995 1.53663 4.49474 1.01948 5.37207 0.689966C6.21055 0.364039 7.16204 0.144564 8.563 0.0788532C9.96396 0.0170848 10.4095 0 13.9802 0ZM13.9802 6.5711C12.2375 6.5711 10.5661 7.26341 9.33375 8.49574C8.10143 9.72806 7.40912 11.3994 7.40912 13.1422C7.40912 14.885 8.10143 16.5564 9.33375 17.7887C10.5661 19.021 12.2375 19.7133 13.9802 19.7133C15.723 19.7133 17.3944 19.021 18.6267 17.7887C19.859 16.5564 20.5513 14.885 20.5513 13.1422C20.5513 11.3994 19.859 9.72806 18.6267 8.49574C17.3944 7.26341 15.723 6.5711 13.9802 6.5711ZM22.5227 6.24255C22.5227 5.80686 22.3496 5.38901 22.0415 5.08093C21.7334 4.77285 21.3156 4.59977 20.8799 4.59977C20.4442 4.59977 20.0263 4.77285 19.7183 5.08093C19.4102 5.38901 19.2371 5.80686 19.2371 6.24255C19.2371 6.67824 19.4102 7.09609 19.7183 7.40417C20.0263 7.71225 20.4442 7.88532 20.8799 7.88532C21.3156 7.88532 21.7334 7.71225 22.0415 7.40417C22.3496 7.09609 22.5227 6.67824 22.5227 6.24255ZM13.9802 9.19954C15.0259 9.19954 16.0287 9.61493 16.7681 10.3543C17.5075 11.0937 17.9229 12.0965 17.9229 13.1422C17.9229 14.1879 17.5075 15.1907 16.7681 15.9301C16.0287 16.6695 15.0259 17.0849 13.9802 17.0849C12.9346 17.0849 11.9317 16.6695 11.1923 15.9301C10.4529 15.1907 10.0376 14.1879 10.0376 13.1422C10.0376 12.0965 10.4529 11.0937 11.1923 10.3543C11.9317 9.61493 12.9346 9.19954 13.9802 9.19954Z" fill="#FFF3E0"/>
</svg>
