<svg width="36" height="36" viewBox="0 0 36 36" fill="none" xmlns="http://www.w3.org/2000/svg">
<path d="M11.8599 16.5499C11.1202 16.5524 10.3936 16.7453 9.74993 17.11C10.6561 14.7645 12.159 12.6962 14.1099 11.1099C14.2216 11.018 14.314 10.905 14.3819 10.7774C14.4499 10.6497 14.492 10.5099 14.5059 10.366C14.5199 10.2221 14.5053 10.0768 14.4631 9.93851C14.4209 9.80021 14.3519 9.67157 14.2599 9.55995C14.168 9.44833 14.055 9.3559 13.9274 9.28795C13.7997 9.22 13.6599 9.17786 13.516 9.16393C13.3721 9.15 13.2268 9.16456 13.0885 9.20677C12.9502 9.24899 12.8216 9.31802 12.7099 9.40995C8.70993 12.6599 6.92993 17.16 6.92993 19.95C6.93682 20.9364 7.2308 21.8996 7.77597 22.7218C8.32114 23.544 9.09391 24.1896 9.99993 24.5799C10.5863 24.864 11.2284 25.0143 11.8799 25.0199C12.4534 25.0478 13.0265 24.9589 13.5646 24.7587C14.1027 24.5584 14.5945 24.251 15.0102 23.855C15.4259 23.459 15.7569 22.9827 15.983 22.455C16.2092 21.9272 16.3258 21.3591 16.3258 20.7849C16.3258 20.2108 16.2092 19.6427 15.983 19.1149C15.7569 18.5872 15.4259 18.1109 15.0102 17.7149C14.5945 17.3189 14.1027 17.0115 13.5646 16.8112C13.0265 16.611 12.4534 16.5221 11.8799 16.5499H11.8599Z" fill="#A8715C"/>
<path d="M23.0001 16.55C22.2602 16.5516 21.5333 16.7445 20.8901 17.11C21.7959 14.767 23.2948 12.6995 25.2401 11.11C25.3618 11.0223 25.4643 10.9105 25.5413 10.7816C25.6182 10.6528 25.668 10.5095 25.6875 10.3607C25.707 10.2119 25.6959 10.0607 25.6548 9.91633C25.6137 9.77198 25.5434 9.63758 25.4484 9.52139C25.3534 9.40519 25.2357 9.30967 25.1023 9.2407C24.969 9.17173 24.823 9.13077 24.6733 9.12034C24.5236 9.1099 24.3733 9.13022 24.2317 9.18004C24.0902 9.22986 23.9603 9.30812 23.8501 9.41002C19.8501 12.66 18.0701 17.16 18.0701 19.95C18.0748 20.9253 18.3602 21.8787 18.8922 22.6962C19.4242 23.5136 20.1802 24.1607 21.0701 24.56C21.6713 24.8524 22.3315 25.0029 23.0001 25C23.5735 25.0279 24.1467 24.939 24.6848 24.7388C25.2228 24.5385 25.7147 24.2311 26.1304 23.8351C26.5461 23.4391 26.877 22.9628 27.1032 22.435C27.3293 21.9073 27.4459 21.3392 27.4459 20.765C27.4459 20.1909 27.3293 19.6227 27.1032 19.095C26.877 18.5673 26.5461 18.091 26.1304 17.695C25.7147 17.299 25.2228 16.9915 24.6848 16.7913C24.1467 16.591 23.5735 16.5021 23.0001 16.53V16.55Z" fill="#A8715C"/>
</svg>
